<?xml version="1.0" encoding="utf-8"?>
<svg xmlns="http://www.w3.org/2000/svg" viewBox="0 0 950 160" xmlns:bx="https://boxy-svg.com" width="950px" height="160px"><defs><bx:export><bx:file format="svg"/></bx:export></defs><g stroke-width="0" fill="none" stroke-linecap="butt" transform="matrix(1, 0, 0, 1, -34.081318, -18.090012)"><path stroke="#808080" vector-effect="non-scaling-stroke" d=" M 234.02 162.06 C 245.59 162.12 255.64 160.39 265.93 154.88 Q 268.73 153.38 276.36 147.49 Q 280.06 144.64 283.63 140.01 Q 288.81 133.28 289.78 131.54 C 297.06 118.47 298.57 104.07 296.53 89.03 Q 294.89 76.89 287.51 65.84 Q 286.75 64.69 280.64 57.31 C 278.43 54.64 274.64 52.28 272.17 50.35 C 262.53 42.81 249.70 39.01 237.50 38.94 C 225.93 38.88 215.88 40.61 205.60 46.12 Q 202.79 47.62 195.16 53.51 Q 191.46 56.36 187.89 60.99 Q 182.71 67.72 181.74 69.46 C 174.46 82.53 172.95 96.93 174.99 111.97 Q 176.63 124.11 184.01 135.16 Q 184.77 136.31 190.88 143.69 C 193.09 146.36 196.88 148.72 199.35 150.65 C 208.99 158.19 221.82 162.00 234.02 162.06"/><path stroke="#808080" vector-effect="non-scaling-stroke" d=" M 862.15 161.96 C 873.71 162.02 883.74 160.28 894.01 154.79 Q 896.81 153.28 904.44 147.40 Q 908.13 144.55 911.70 139.93 Q 916.87 133.21 917.84 131.47 C 925.11 118.41 926.62 104.03 924.58 89.01 Q 922.94 76.88 915.57 65.85 Q 914.81 64.70 908.71 57.33 C 906.50 54.66 902.71 52.30 900.25 50.37 C 890.62 42.84 877.80 39.05 865.62 38.98 C 854.06 38.92 844.02 40.65 833.75 46.15 Q 830.95 47.65 823.33 53.54 Q 819.64 56.38 816.07 61.01 Q 810.90 67.73 809.93 69.47 C 802.66 82.52 801.15 96.90 803.19 111.93 Q 804.83 124.05 812.20 135.09 Q 812.96 136.24 819.06 143.61 C 821.27 146.28 825.05 148.63 827.52 150.56 C 837.15 158.09 849.96 161.89 862.15 161.96"/><path stroke="#808080" vector-effect="non-scaling-stroke" d=" M 127.57 110.83 C 124.65 106.16 121.54 102.17 118.31 97.23 Q 99.84 68.94 83.10 43.55 C 81.92 41.77 80.83 40.66 78.75 40.73 Q 71.36 40.98 64.52 40.69 Q 58.14 40.42 54.25 41.52 Q 51.01 42.45 51.00 46.24 Q 50.76 99.16 50.85 160.56 A 0.56 0.56 0.0 0 0 51.41 161.12 L 80.12 161.12 A 1.01 1.00 0.0 0 0 81.13 160.12 L 81.13 90.86 A 0.47 0.46 -61.8 0 1 81.98 90.60 L 128.26 160.52 A 1.21 1.19 72.9 0 0 129.26 161.06 L 158.47 161.06 A 0.41 0.41 0.0 0 0 158.88 160.65 L 158.88 41.69 A 1.20 1.19 -0.0 0 0 157.68 40.50 L 129.40 40.50 A 0.51 0.51 0.0 0 0 128.89 40.95 Q 128.53 44.13 128.50 47.25 Q 128.27 69.32 128.43 84.27 Q 128.56 96.27 128.23 102.00 Q 128.01 105.74 128.38 110.56 A 0.44 0.44 0.0 0 1 127.57 110.83"/><path stroke="#808080" vector-effect="non-scaling-stroke" d=" M 310.74 41.75 C 310.11 60.88 310.65 80.07 310.69 98.00 Q 310.71 106.10 310.84 113.85 Q 311.00 124.03 312.59 129.56 Q 317.16 145.50 331.64 154.69 C 335.86 157.38 342.27 159.41 345.99 160.49 Q 350.86 161.90 359.79 162.25 C 363.00 162.37 366.41 161.45 369.47 161.26 Q 372.92 161.04 376.65 159.94 Q 388.13 156.57 397.57 148.30 C 408.35 138.86 411.42 124.94 411.49 111.25 Q 411.69 76.75 411.41 41.48 A 0.76 0.76 0.0 0 0 410.69 40.73 Q 396.31 39.92 382.04 40.96 A 0.75 0.75 0.0 0 0 381.35 41.67 C 380.95 51.11 380.74 55.38 380.91 63.79 Q 381.39 88.22 381.21 107.73 C 381.17 111.83 380.78 118.57 379.31 121.83 Q 377.06 126.86 375.86 127.93 Q 366.39 136.43 353.83 132.69 C 351.62 132.03 348.42 129.95 346.92 128.90 A 5.30 5.25 -0.3 0 1 345.79 127.79 C 341.51 122.11 340.88 116.02 340.74 109.25 Q 340.68 106.28 340.92 53.75 Q 340.95 48.68 340.65 41.80 A 1.15 1.14 89.2 0 0 339.53 40.70 Q 329.61 40.51 316.26 40.60 Q 312.92 40.62 311.26 41.08 A 0.73 0.71 83.5 0 0 310.74 41.75"/><path stroke="#808080" vector-effect="non-scaling-stroke" d=" M 679.04 41.11 L 679.04 160.33 A 0.71 0.70 90.0 0 0 679.74 161.04 L 708.32 161.04 A 0.57 0.57 0.0 0 0 708.89 160.50 Q 709.38 152.06 709.23 144.33 C 709.18 142.26 709.51 140.10 709.46 138.00 Q 708.83 112.68 709.82 95.18 Q 709.93 93.26 709.59 91.26 A 0.37 0.37 0.0 0 1 710.27 90.99 L 756.03 160.13 A 1.99 1.97 72.9 0 0 757.67 161.01 L 786.29 161.01 A 0.64 0.63 0.0 0 0 786.93 160.38 L 786.93 41.36 A 0.72 0.71 -0.0 0 0 786.21 40.65 L 757.16 40.65 A 0.61 0.61 0.0 0 0 756.55 41.26 L 756.55 110.94 A 0.42 0.42 0.0 0 1 755.92 111.31 L 755.52 111.09 A 0.38 0.35 -79.7 0 1 755.38 110.87 Q 755.17 109.91 749.74 102.02 Q 738.40 85.52 713.83 47.41 Q 713.57 47.01 709.66 41.62 A 2.90 2.89 71.7 0 0 707.33 40.44 L 679.72 40.44 A 0.68 0.67 0.0 0 0 679.04 41.11"/><path stroke="#808080" vector-effect="non-scaling-stroke" d=" M 461.26 160.22 L 461.26 94.65 A 0.28 0.27 -0.0 0 1 461.54 94.38 L 461.84 94.38 A 0.55 0.55 0.0 0 1 462.38 94.82 Q 463.69 101.28 467.18 108.76 Q 469.91 114.62 482.72 149.95 Q 484.53 154.93 486.91 160.12 A 1.45 1.44 -11.9 0 0 488.21 160.96 Q 497.80 161.07 507.75 161.11 Q 509.54 161.11 510.98 160.42 A 1.42 1.40 -0.8 0 0 511.64 159.75 Q 514.29 154.16 515.27 151.23 Q 522.21 130.64 530.75 109.68 Q 533.44 103.09 535.73 94.79 A 0.31 0.30 49.3 0 1 536.33 94.84 Q 536.57 96.66 536.57 96.75 Q 536.37 103.09 536.70 109.93 C 537.56 128.25 536.53 145.29 537.17 160.31 A 0.76 0.75 -1.2 0 0 537.93 161.03 L 566.45 161.03 A 0.72 0.72 0.0 0 0 567.17 160.31 L 567.17 41.61 A 1.05 1.05 0.0 0 0 566.12 40.56 L 533.15 40.56 A 2.08 2.07 -79.2 0 0 531.22 41.88 Q 521.54 66.80 509.57 95.90 Q 506.74 102.80 503.89 110.01 C 502.62 113.25 500.22 115.79 500.19 119.42 A 0.64 0.64 0.0 0 1 498.95 119.62 Q 497.65 115.87 496.17 113.10 Q 494.41 109.79 493.17 106.70 Q 474.35 59.80 470.20 49.78 Q 468.14 44.81 466.89 42.08 A 2.66 2.66 0.0 0 0 464.47 40.53 L 431.51 40.53 A 0.60 0.59 90.0 0 0 430.92 41.13 L 430.92 160.33 A 0.68 0.68 0.0 0 0 431.60 161.01 L 460.47 161.01 A 0.79 0.79 0.0 0 0 461.26 160.22"/><path stroke="#808080" vector-effect="non-scaling-stroke" d=" M 617.84 88.19 A 0.64 0.64 0.0 0 1 617.34 87.58 L 617.14 65.90 A 0.82 0.81 89.7 0 1 617.95 65.07 L 660.10 65.07 A 1.18 1.17 -0.0 0 0 661.28 63.90 L 661.28 41.74 A 1.23 1.22 0.0 0 0 660.05 40.52 L 587.76 40.52 A 0.79 0.79 0.0 0 0 586.97 41.31 L 586.97 160.37 A 0.61 0.61 0.0 0 0 587.58 160.98 L 660.71 160.98 A 0.45 0.44 -90.0 0 0 661.15 160.53 L 661.15 137.80 A 0.74 0.74 0.0 0 0 660.51 137.07 Q 655.78 136.44 650.25 136.49 Q 642.61 136.55 629.43 136.88 C 625.43 136.98 621.77 136.39 617.91 136.31 A 0.72 0.72 0.0 0 1 617.20 135.59 L 617.20 112.06 A 0.57 0.57 0.0 0 1 617.77 111.49 L 654.37 111.49 A 1.56 1.56 0.0 0 0 655.93 109.93 L 655.93 90.07 A 1.33 1.24 29.0 0 0 655.69 89.33 Q 654.65 87.86 652.87 87.87 Q 636.67 88.01 620.08 87.86 Q 619.76 87.86 618.93 88.02 Q 617.94 88.21 617.84 88.19"/><path stroke="#808080" vector-effect="non-scaling-stroke" d=" M 972.9593 145.8236 A 17.92 16.43 -0.5 0 0 954.8966 129.5506 A 17.92 16.43 -0.5 0 0 937.1207 146.1364 A 17.92 16.43 -0.5 0 0 955.1834 162.4094 A 17.92 16.43 -0.5 0 0 972.9593 145.8236"/><path stroke="#808080" vector-effect="non-scaling-stroke" d=" M 205.03 100.62 C 205.12 119.06 216.06 134.32 235.96 134.23 C 255.85 134.13 266.64 118.76 266.56 100.33 C 266.47 81.89 255.53 66.63 235.63 66.72 C 215.74 66.82 204.94 82.18 205.03 100.62"/><path stroke="#808080" vector-effect="non-scaling-stroke" d=" M 833.00 100.33 C 832.95 118.79 843.78 134.16 863.71 134.22 C 883.64 134.28 894.57 118.98 894.62 100.51 C 894.68 82.04 883.84 66.67 863.91 66.61 C 843.98 66.55 833.06 81.86 833.00 100.33"/></g><path fill="#ffffff" d="M 203.093 20.687 C 215.293 20.757 228.123 24.557 237.763 32.097 C 240.233 34.027 244.023 36.387 246.233 39.057 C 250.306 43.977 252.596 46.82 253.103 47.587 C 258.023 54.954 261.029 62.684 262.123 70.777 C 264.163 85.817 262.653 100.217 255.373 113.287 C 254.726 114.447 252.676 117.27 249.223 121.757 C 246.843 124.844 244.419 127.337 241.953 129.237 C 236.866 133.164 233.389 135.627 231.523 136.627 C 221.233 142.137 211.183 143.867 199.613 143.807 C 187.413 143.747 174.583 139.937 164.943 132.397 C 162.473 130.467 158.683 128.107 156.473 125.437 C 152.399 120.517 150.109 117.674 149.603 116.907 C 144.683 109.54 141.676 101.81 140.583 93.717 C 138.543 78.677 140.053 64.277 147.333 51.207 C 147.979 50.047 150.029 47.224 153.483 42.737 C 155.863 39.65 158.286 37.157 160.753 35.257 C 165.839 31.33 169.319 28.867 171.193 27.867 C 181.473 22.357 191.523 20.627 203.093 20.687 Z M 170.623 82.367 C 170.713 100.807 181.653 116.067 201.553 115.977 C 221.443 115.877 232.233 100.507 232.153 82.077 C 232.063 63.637 221.123 48.377 201.223 48.467 C 181.333 48.567 170.533 63.927 170.623 82.367 Z"/><path fill="#ffffff" d="M 828.069 143.87 C 815.879 143.8 803.069 140 793.439 132.47 C 790.969 130.54 787.189 128.19 784.979 125.52 C 780.912 120.607 778.625 117.767 778.119 117 C 773.205 109.64 770.202 101.92 769.109 93.84 C 767.069 78.81 768.579 64.43 775.849 51.38 C 776.495 50.22 778.542 47.4 781.989 42.92 C 784.369 39.833 786.789 37.343 789.249 35.45 C 794.329 31.523 797.802 29.06 799.669 28.06 C 809.939 22.56 819.979 20.83 831.539 20.89 C 843.719 20.96 856.539 24.75 866.169 32.28 C 868.629 34.21 872.419 36.57 874.629 39.24 C 878.695 44.153 880.982 46.993 881.489 47.76 C 886.402 55.113 889.405 62.833 890.499 70.92 C 892.539 85.94 891.029 100.32 883.759 113.38 C 883.112 114.54 881.065 117.36 877.619 121.84 C 875.239 124.92 872.819 127.41 870.359 129.31 C 865.272 133.23 861.795 135.693 859.929 136.7 C 849.659 142.19 839.629 143.93 828.069 143.87 Z M 798.919 82.24 C 798.869 100.7 809.699 116.07 829.629 116.13 C 849.559 116.19 860.489 100.89 860.539 82.42 C 860.599 63.95 849.759 48.58 829.829 48.52 C 809.899 48.46 798.979 63.77 798.919 82.24 Z"/><path fill="#ffffff" d="M 93.489 92.74 C 93.67 93.026 94.093 93.008 94.25 92.707 C 94.288 92.634 94.305 92.552 94.299 92.47 C 94.052 89.257 94.002 86.403 94.149 83.91 C 94.369 80.09 94.435 74.18 94.349 66.18 C 94.242 56.213 94.265 43.873 94.419 29.16 C 94.439 27.08 94.569 24.98 94.809 22.86 C 94.839 22.602 95.059 22.408 95.319 22.41 L 123.599 22.41 C 124.261 22.41 124.799 22.943 124.799 23.6 L 124.799 133.266 L 124.799 142.56 C 124.799 142.786 124.615 142.97 124.389 142.97 L 95.179 142.97 C 94.778 142.971 94.403 142.768 94.179 142.43 L 47.899 72.51 C 47.705 72.211 47.261 72.243 47.099 72.566 C 47.067 72.63 47.05 72.699 47.049 72.77 L 47.049 142.03 C 47.049 142.582 46.596 143.03 46.039 143.03 L 17.329 143.03 C 17.019 143.03 16.769 142.779 16.769 142.47 C 16.709 101.537 16.759 63.43 16.919 28.15 C 16.925 25.623 18.009 24.05 20.169 23.43 C 22.762 22.697 26.185 22.42 30.439 22.6 C 34.999 22.793 39.742 22.807 44.669 22.64 C 46.749 22.57 47.839 23.68 49.019 25.46 C 60.179 42.387 71.915 60.28 84.229 79.14 C 87.459 84.08 90.569 88.07 93.489 92.74 Z"/><path fill="#ffffff" d="M 277.179 22.99 C 278.285 22.683 279.952 22.523 282.179 22.51 C 291.079 22.45 298.835 22.483 305.449 22.61 C 306.051 22.62 306.542 23.102 306.569 23.71 C 306.769 28.297 306.859 32.28 306.839 35.66 C 306.679 70.68 306.619 89.18 306.659 91.16 C 306.799 97.93 307.429 104.02 311.709 109.7 C 312.027 110.124 312.408 110.498 312.839 110.81 C 314.339 111.86 317.539 113.94 319.749 114.6 C 328.122 117.093 335.465 115.507 341.779 109.84 C 342.579 109.127 343.729 107.093 345.229 103.74 C 346.699 100.48 347.089 93.74 347.129 89.64 C 347.249 76.633 347.149 61.987 346.829 45.7 C 346.659 37.29 346.869 33.02 347.269 23.58 C 347.287 23.204 347.583 22.9 347.959 22.87 C 357.472 22.177 367.022 22.1 376.609 22.64 C 377.009 22.661 377.324 22.989 377.329 23.39 C 377.515 46.903 377.542 70.16 377.409 93.16 C 377.339 106.85 374.269 120.77 363.489 130.21 C 357.195 135.723 350.222 139.603 342.569 141.85 C 340.082 142.583 337.689 143.023 335.389 143.17 C 332.329 143.36 328.919 144.28 325.709 144.16 C 319.755 143.927 315.155 143.34 311.909 142.4 C 308.189 141.32 301.779 139.29 297.559 136.6 C 287.905 130.473 281.555 122.097 278.509 111.47 C 277.449 107.783 276.865 102.547 276.759 95.76 C 276.672 90.593 276.622 85.31 276.609 79.91 C 276.569 61.98 276.029 42.79 276.659 23.66 C 276.671 23.343 276.881 23.073 277.179 22.99 Z"/><path fill="#ffffff" d="M 645.639 22.35 L 673.249 22.35 C 674.167 22.35 675.032 22.788 675.579 23.53 C 678.185 27.123 679.575 29.053 679.749 29.32 C 696.129 54.727 708.099 72.93 715.659 83.93 C 719.279 89.19 721.159 92.14 721.299 92.78 C 721.318 92.87 721.368 92.949 721.439 93 L 721.839 93.22 C 722.118 93.382 722.469 93.18 722.469 92.856 C 722.469 92.854 722.469 92.852 722.469 92.85 L 722.469 23.17 C 722.469 22.833 722.742 22.56 723.079 22.56 L 752.129 22.56 C 752.526 22.56 752.849 22.878 752.849 23.27 L 752.849 142.29 C 752.849 142.638 752.562 142.92 752.209 142.92 L 723.589 142.92 C 722.932 142.919 722.317 142.589 721.949 142.04 L 676.189 72.9 C 676.045 72.654 675.689 72.656 675.548 72.903 C 675.501 72.984 675.488 73.079 675.509 73.17 C 675.735 74.503 675.812 75.81 675.739 77.09 C 675.079 88.757 674.959 103.03 675.379 119.91 C 675.429 122.01 675.099 124.17 675.149 126.24 C 675.249 131.393 675.135 136.783 674.809 142.41 C 674.793 142.713 674.542 142.95 674.239 142.95 L 645.659 142.95 C 645.272 142.95 644.959 142.632 644.959 142.24 L 644.959 23.02 C 644.959 22.65 645.263 22.35 645.639 22.35 Z"/><path fill="#ffffff" d="M 427.179 142.13 C 427.179 142.566 426.825 142.92 426.389 142.92 L 397.519 142.92 C 397.143 142.92 396.839 142.616 396.839 142.24 L 396.839 23.04 C 396.839 22.709 397.103 22.44 397.429 22.44 L 430.389 22.44 C 431.429 22.439 432.374 23.045 432.809 23.99 C 433.642 25.81 434.745 28.377 436.119 31.69 C 438.885 38.37 446.542 57.343 459.089 88.61 C 459.915 90.67 460.915 92.803 462.089 95.01 C 463.075 96.857 464.002 99.03 464.869 101.53 C 465.039 101.992 465.646 102.096 465.961 101.717 C 466.052 101.608 466.104 101.472 466.109 101.33 C 466.139 97.7 468.539 95.16 469.809 91.92 C 471.709 87.113 473.602 82.41 475.489 77.81 C 483.469 58.41 490.685 40.403 497.139 23.79 C 497.451 22.994 498.217 22.47 499.069 22.47 L 532.039 22.47 C 532.618 22.47 533.089 22.94 533.089 23.52 L 533.089 142.22 C 533.089 142.618 532.766 142.94 532.369 142.94 L 503.849 142.94 C 503.44 142.941 503.105 142.623 503.089 142.22 C 502.449 127.2 503.479 110.16 502.619 91.84 C 502.399 87.28 502.355 82.887 502.489 78.66 C 502.489 78.6 502.409 77.963 502.249 76.75 C 502.223 76.515 501.955 76.388 501.766 76.522 C 501.706 76.564 501.664 76.627 501.649 76.7 C 500.122 82.233 498.462 87.197 496.669 91.59 C 490.975 105.563 485.815 119.413 481.189 133.14 C 480.535 135.093 479.325 137.933 477.559 141.66 C 477.423 141.951 477.19 142.188 476.899 142.33 C 475.939 142.79 474.862 143.02 473.669 143.02 C 467.035 142.993 460.522 142.943 454.129 142.87 C 453.567 142.864 453.061 142.537 452.829 142.03 C 451.242 138.57 449.845 135.18 448.639 131.86 C 440.099 108.307 434.919 94.577 433.099 90.67 C 430.772 85.683 429.172 81.037 428.299 76.73 C 428.246 76.474 428.02 76.289 427.759 76.29 L 427.459 76.29 C 427.304 76.29 427.179 76.411 427.179 76.56 L 427.179 142.13 Z"/><path fill="#ffffff" d="M 583.759 70.1 C 583.825 70.113 584.189 70.057 584.849 69.93 C 585.402 69.823 585.785 69.77 585.999 69.77 C 597.059 69.87 607.989 69.873 618.789 69.78 C 619.975 69.773 620.915 70.26 621.609 71.24 C 621.765 71.461 621.848 71.72 621.849 71.98 L 621.849 91.84 C 621.849 92.702 621.15 93.4 620.289 93.4 L 583.689 93.4 C 583.374 93.4 583.119 93.655 583.119 93.97 L 583.119 117.5 C 583.118 117.894 583.435 118.215 583.829 118.22 C 587.689 118.3 591.349 118.89 595.349 118.79 C 604.135 118.57 611.075 118.44 616.169 118.4 C 619.855 118.367 623.275 118.56 626.429 118.98 C 626.794 119.03 627.067 119.341 627.069 119.71 L 627.069 142.44 C 627.069 142.689 626.872 142.89 626.629 142.89 L 553.499 142.89 C 553.162 142.89 552.889 142.617 552.889 142.28 L 552.889 23.22 C 552.889 22.784 553.242 22.43 553.679 22.43 L 625.969 22.43 C 626.648 22.43 627.199 22.976 627.199 23.65 L 627.199 45.81 C 627.199 46.456 626.67 46.98 626.019 46.98 L 583.869 46.98 C 583.417 46.98 583.053 47.353 583.059 47.81 L 583.259 69.49 C 583.265 69.784 583.471 70.036 583.759 70.1 Z"/><ellipse fill="#ffffff" transform="matrix(0.999962, -0.008727, 0.008727, 0.999962, 920.958679, 127.889969)" rx="17.92" ry="16.43"/></svg>